<?xml version="1.0" encoding="UTF-8" standalone="no"?>
<!-- Uploaded to: SVG Repo, www.svgrepo.com, Generator: SVG Repo Mixer Tools -->

<svg id="times" viewBox="0 0 16.000869 16" version="1.1"  xmlns="http://www.w3.org/2000/svg" xmlns:svg="http://www.w3.org/2000/svg">
  <defs id="defs1" />
  <path d="M 9.4847141,8.024553 15.686863,1.8223475 C 15.790279,1.7260035 15.873209,1.6098187 15.93074,1.4807241 15.98827,1.3516296 16.01914,1.2122636 16.02167,1.0709613 16.02417,0.9296589 15.9981,0.78929668 15.9452,0.65825172 15.892292,0.52720676 15.813572,0.4081732 15.713524,0.30823721 15.613616,0.20830122 15.494625,0.1295255 15.363566,0.07659675 15.232507,0.02365397 15.092187,-0.00233331 14.950884,1.6438663e-4 14.809582,0.00264805 14.670244,0.03358864 14.54115,0.09110586 14.412055,0.14862307 14.29587,0.23155226 14.19947,0.33495416 L 7.9973208,6.5371597 1.7951714,0.33495416 C 1.5956643,0.14905807 1.3318063,0.04784516 1.0591643,0.05265814 0.78652234,0.05747112 0.52638287,0.16791709 0.33356899,0.360745 0.14074108,0.55355888 0.03029511,0.81368432 0.02548213,1.0863403 0.02068319,1.3589823 0.12188206,1.6228404 0.30777815,1.8223475 L 6.5099275,8.024553 0.30777815,14.226702 C 0.11069854,14.423992 0,14.691442 0,14.970399 c 0,0.278816 0.11069854,0.546266 0.30777815,0.743696 0.19731816,0.19701 0.4648104,0.307722 0.74369665,0.307722 0.2788862,0 0.5463644,-0.110712 0.7436966,-0.307722 L 7.9973208,9.5119463 14.19947,15.714095 c 0.19729,0.19701 0.46474,0.307722 0.743697,0.307722 0.278956,0 0.546406,-0.110712 0.743696,-0.307722 0.19701,-0.19743 0.307722,-0.46488 0.307722,-0.743696 0,-0.278957 -0.110712,-0.546407 -0.307722,-0.743697 z" id="path1" style="stroke-width:1.4032" />
</svg>
